<svg xmlns="http://www.w3.org/2000/svg" viewBox="0 0 905.96 139.75"><defs><style>.cls-1{fill:blue;}.cls-2{fill:#8080ff;}</style></defs><g id="Слой_2" data-name="Слой 2"><g id="Слой_1-2" data-name="Слой 1"><path class="cls-1" d="M27.33,32.49H51.47L41.82,53.18H67.77a15.87,15.87,0,0,0,14.68-9.49l5.22-11.2h25L107,44.56A42.19,42.19,0,0,1,84.33,66.45L87.06,91.1H58.61L56.37,70.42H33.78L24.14,91.1H0Z"/><path class="cls-1" d="M119.55,91.1H91.1l61.12-58.61H183l6.38,58.61H160.92L159.57,79h-27.5Zm39.27-19-1.83-17-17.74,17Z"/><path class="cls-1" d="M296.87,32.49l-8.84,19H241.48c-9,0-15,4.4-17.75,10.35s-.95,10.34,8.1,10.34h46.55l-8.84,19H222c-24.74,0-31.83-11-23.31-29.3,4-8.62,8-17.86,16.83-23.29s21.66-6,33.81-6Z"/><path class="cls-1" d="M359.52,32.49h31L363.22,91.1H339.09l14.27-30.6L307.45,91.1H277l27.33-58.61h24.13l-14.55,31.2Z"/><path class="cls-1" d="M460.1,32.49h24.14L456.91,91.1H432.77l9.65-20.68H404.49L394.85,91.1H370.71L398,32.49h24.14l-9.65,20.69h37.93Z"/><path class="cls-1" d="M553.79,32.49h24.14L550.59,91.1H526.46l9.65-20.68H498.18L488.53,91.1H464.4l27.33-58.61h24.13l-9.64,20.69h37.92Z"/><path class="cls-1" d="M613.25,91.1H589.11L607.6,51.45H575.71l8.84-19h87.2l-15.81,19h-24.2Z"/><path class="cls-1" d="M846.74,91.1l-9.25-16.2L813.12,91.1H781.23l44-29.3L808.56,32.49h31.89l9.17,16.2,24.45-16.2H906L861.87,61.8l16.76,29.3Z"/><path class="cls-1" d="M780.67,46.58H685L664.2,72.82h95.68Z"/><path class="cls-1" d="M801.45,0H705.78L685,26.24h95.68Z"/><path class="cls-2" d="M780.67,26.24V46.58l20.78-26.23V0Z"/><path class="cls-2" d="M759.88,72.82V93.17l20.79-26.24V46.58Z"/><path class="cls-2" d="M739.09,119.41v20.34l20.79-26.23V93.17Z"/><path class="cls-1" d="M759.88,93.17H664.2l-20.79,26.24h95.68Z"/></g></g></svg>