<svg width="3145" height="485" viewBox="0 0 3145 485" fill="none" xmlns="http://www.w3.org/2000/svg">
<path d="M2130.46 368.715V373.875H2114.6V413.864H2109.18V373.875H2093.31V368.715H2130.46Z" fill="white"/>
<path d="M2051.35 413.864L2071.02 368.715H2077.02L2096.63 413.864H2090.83L2086.18 402.964H2061.87L2057.22 413.864H2051.35ZM2063.99 397.933H2084.05L2074.7 376.004C2074.44 375.423 2074.25 374.907 2073.99 374.262C2073.73 374.907 2073.54 375.423 2073.28 376.004L2063.99 397.933Z" fill="white"/>
<path d="M2044.99 368.715V413.864H2039.57V393.805H2012.81V413.864H2007.39V368.715H2012.81V388.645H2039.57V368.715H2044.99Z" fill="white"/>
<path d="M1951.32 391.29C1951.32 379.616 1959.13 367.941 1974.93 367.941C1990.73 367.941 1998.54 379.616 1998.54 391.29C1998.54 402.964 1990.73 414.638 1974.93 414.638C1959.13 414.638 1951.32 402.964 1951.32 391.29ZM1993.05 391.29C1993.05 382.002 1987.18 373.101 1974.93 373.101C1962.68 373.101 1956.81 382.002 1956.81 391.29C1956.81 400.578 1962.68 409.478 1974.93 409.478C1987.18 409.478 1993.05 400.578 1993.05 391.29Z" fill="white"/>
<path d="M1942.51 413.864H1937.09V381.615V377.745L1909.94 413.864H1904.91V368.715H1910.33V400.9V404.77L1937.48 368.715H1942.51V413.864Z" fill="white"/>
<path d="M1856.16 413.864V368.715H1892.99V413.864H1887.57V373.875H1861.58V413.864H1856.16Z" fill="white"/>
<path d="M1844.27 368.715V413.864H1838.86V378.97L1822.67 403.222H1819.31L1803.12 378.97V413.864H1797.71V368.715H1802.35L1820.99 396.579L1839.63 368.715H1844.27Z" fill="white"/>
<path d="M1788.15 368.715V373.875H1763.13V388.516H1786.22V393.676H1763.13V408.704H1788.54V413.864H1757.71V368.715H1788.15Z" fill="white"/>
<path d="M1740.45 413.864V396.192C1735.87 397.74 1731.42 398.449 1727.23 398.449C1716.91 398.32 1710.59 393.289 1710.59 383.098V368.715H1716.01V383.356C1716.01 390.58 1720.97 393.225 1728.52 393.289C1732.39 393.289 1736.45 392.58 1740.45 391.032V368.715H1745.87V413.864H1740.45Z" fill="white"/>
<path d="M1675.85 361.62C1672.95 363.684 1669.91 364.329 1666.82 364.329C1663.72 364.329 1660.69 363.684 1657.79 361.62V356.59C1661.01 358.718 1663.66 359.428 1666.82 359.428C1669.98 359.428 1672.62 358.718 1675.85 356.59V361.62ZM1685.65 413.864H1680.23V381.615V377.745L1653.08 413.864H1648.05V368.715H1653.47V400.9V404.77L1680.62 368.715H1685.65V413.864Z" fill="white"/>
<path d="M1591.24 413.864V368.715H1596.65V384.775H1606.65C1617.1 384.775 1625.81 388 1625.81 399.287C1625.81 410.575 1617.1 413.864 1606.65 413.864H1591.24ZM1630.77 413.864V368.715H1636.19V413.864H1630.77ZM1596.65 408.704H1606.91C1614.33 408.704 1620.32 406.963 1620.32 399.287C1620.32 391.677 1614.26 389.935 1606.91 389.935H1596.65V408.704Z" fill="white"/>
<path d="M1579.39 368.715V413.864H1573.98V393.805H1547.21V413.864H1541.79V368.715H1547.21V388.645H1573.98V368.715H1579.39Z" fill="white"/>
<path d="M1499.15 413.864V368.715H1504.57V384.775H1514.56C1525.01 384.775 1533.72 388 1533.72 399.287C1533.72 410.575 1525.01 413.864 1514.56 413.864H1499.15ZM1504.57 408.704H1514.82C1522.24 408.704 1528.24 406.963 1528.24 399.287C1528.24 391.677 1522.17 389.935 1514.82 389.935H1504.57V408.704Z" fill="white"/>
<path d="M1487.28 368.715V413.864H1481.86V373.875H1464.64C1462.83 394.45 1461.15 414.445 1449.35 414.509C1448.12 414.509 1446.77 414.316 1445.35 413.8V408.64C1446.25 408.962 1447.03 409.091 1448.45 409.091C1456.64 409.091 1457.93 388.645 1459.48 368.715H1487.28Z" fill="white"/>
<path d="M1441.47 368.715V373.875H1416.45V388.516H1439.54V393.676H1416.45V408.704H1441.86V413.864H1411.03V368.715H1441.47Z" fill="white"/>
<path d="M1404.22 368.715V373.875H1388.36V413.864H1382.94V373.875H1367.07V368.715H1404.22Z" fill="white"/>
<path d="M1360.26 413.864H1354.84V381.615V377.745L1327.69 413.864H1322.66V368.715H1328.08V400.9V404.77L1355.23 368.715H1360.26V413.864Z" fill="white"/>
<path d="M1266.59 391.29C1266.59 379.616 1274.4 367.941 1290.2 367.941C1306 367.941 1313.81 379.616 1313.81 391.29C1313.81 402.964 1306 414.638 1290.2 414.638C1274.4 414.638 1266.59 402.964 1266.59 391.29ZM1308.32 391.29C1308.32 382.002 1302.45 373.101 1290.2 373.101C1277.95 373.101 1272.08 382.002 1272.08 391.29C1272.08 400.578 1277.95 409.478 1290.2 409.478C1302.45 409.478 1308.32 400.578 1308.32 391.29Z" fill="white"/>
<path d="M1241.96 368.715C1252.41 368.715 1261.11 372.005 1261.11 383.292C1261.11 394.579 1252.41 397.869 1241.96 397.869H1231.96V413.864H1226.54V368.715H1241.96ZM1255.63 383.292C1255.63 375.617 1249.63 373.875 1242.22 373.875H1231.96V392.709H1242.22C1249.57 392.709 1255.63 390.903 1255.63 383.292Z" fill="white"/>
<path d="M1219.74 368.715V373.875H1203.87V413.864H1198.45V373.875H1182.59V368.715H1219.74Z" fill="white"/>
<path d="M1142.45 391.612C1142.51 375.939 1154.44 367.941 1166.18 367.941C1170.7 367.941 1175.08 368.973 1178.89 370.973V376.391C1175.6 374.198 1171.34 373.101 1167.09 373.101C1157.73 373.101 1147.99 378.713 1147.93 391.612C1147.86 403.673 1157.93 409.478 1167.28 409.478C1171.92 409.478 1176.11 408.382 1179.21 406.189V411.607C1175.47 413.542 1170.95 414.638 1166.12 414.638C1154.77 414.638 1142.38 406.64 1142.45 391.612Z" fill="white"/>
<path d="M1107.77 361.62C1104.87 363.684 1101.84 364.329 1098.74 364.329C1095.64 364.329 1092.61 363.684 1089.71 361.62V356.59C1092.94 358.718 1095.58 359.428 1098.74 359.428C1101.9 359.428 1104.55 358.718 1107.77 356.59V361.62ZM1117.57 413.864H1112.16V381.615V377.745L1085 413.864H1079.97V368.715H1085.39V400.9V404.77L1112.54 368.715H1117.57V413.864Z" fill="white"/>
<path d="M1068.13 413.864H1062.71V381.615V377.745L1035.56 413.864H1030.53V368.715H1035.94V400.9V404.77L1063.1 368.715H1068.13V413.864Z" fill="white"/>
<path d="M987.633 413.864V368.715H993.051V388.323H1000.73L1016.92 368.715H1023.11L1005.37 390.451L1024.46 413.864H1018.27L1000.92 393.418H993.051V413.864H987.633Z" fill="white"/>
<path d="M942.464 391.612C942.528 375.939 954.46 367.941 966.199 367.941C970.714 367.941 975.1 368.973 978.905 370.973V376.391C975.616 374.198 971.359 373.101 967.102 373.101C957.75 373.101 948.011 378.713 947.946 391.612C947.882 403.673 957.943 409.478 967.296 409.478C971.939 409.478 976.132 408.382 979.228 406.189V411.607C975.487 413.542 970.972 414.638 966.135 414.638C954.783 414.638 942.399 406.64 942.464 391.612Z" fill="white"/>
<path d="M936.635 368.715V373.875H911.609V388.516H934.7V393.676H911.609V408.704H937.022V413.864H906.191V368.715H936.635Z" fill="white"/>
<path d="M888.934 413.864V396.192C884.354 397.74 879.904 398.449 875.711 398.449C865.392 398.32 859.071 393.289 859.071 383.098V368.715H864.489V383.356C864.489 390.58 869.455 393.225 877.001 393.289C880.871 393.289 884.935 392.58 888.934 391.032V368.715H894.351V413.864H888.934Z" fill="white"/>
<path d="M850.195 368.715V413.864H844.777V393.805H818.01V413.864H812.592V368.715H818.01V388.645H844.777V368.715H850.195Z" fill="white"/>
<path d="M803.039 368.715V373.875H778.014V388.516H801.105V393.676H778.014V408.704H803.426V413.864H772.596V368.715H803.039Z" fill="white"/>
<path d="M718.38 424.506V408.704H723.862C729.667 398.191 731.215 382.582 731.215 368.715H758.949V408.704H764.625V424.506H759.465V413.864H723.54V424.506H718.38ZM736.762 373.875C736.052 386.065 734.44 399.803 729.925 408.704H753.532V373.875H736.762Z" fill="white"/>
<path d="M704.437 403.609C700.245 412.445 695.214 414.638 690.248 414.638C688.248 414.638 686.055 414.316 684.12 413.735V408.64C685.604 409.091 687.474 409.478 689.28 409.478C692.569 409.478 695.601 408.833 698.374 403.544L699.148 401.867L680.508 368.715H686.507L702.051 396.772L715.08 368.715H720.884L704.437 403.609Z" fill="white"/>
<path d="M679.121 368.715V373.875H663.254V413.864H657.836V373.875H641.97V368.715H679.121Z" fill="white"/>
<path d="M601.831 391.612C601.896 375.939 613.828 367.941 625.567 367.941C630.082 367.941 634.468 368.973 638.273 370.973V376.391C634.984 374.198 630.727 373.101 626.47 373.101C617.117 373.101 607.378 378.713 607.314 391.612C607.249 403.673 617.311 409.478 626.663 409.478C631.307 409.478 635.5 408.382 638.595 406.189V411.607C634.855 413.542 630.34 414.638 625.502 414.638C614.151 414.638 601.767 406.64 601.831 391.612Z" fill="white"/>
<path d="M567.155 361.62C564.252 363.684 561.221 364.329 558.125 364.329C555.029 364.329 551.998 363.684 549.095 361.62V356.59C552.32 358.718 554.965 359.428 558.125 359.428C561.285 359.428 563.93 358.718 567.155 356.59V361.62ZM576.959 413.864H571.541V381.615V377.745L544.387 413.864H539.356V368.715H544.774V400.9V404.77L571.928 368.715H576.959V413.864Z" fill="white"/>
<path d="M527.514 413.864H522.096V381.615V377.745L494.942 413.864H489.911V368.715H495.329V400.9V404.77L522.483 368.715H527.514V413.864Z" fill="white"/>
<path d="M447.018 413.864V368.715H452.435V388.323H460.111L476.3 368.715H482.492L464.755 390.451L483.846 413.864H477.654L460.304 393.418H452.435V413.864H447.018Z" fill="white"/>
<path d="M401.848 391.612C401.912 375.939 413.845 367.941 425.583 367.941C430.098 367.941 434.484 368.973 438.29 370.973V376.391C435 374.198 430.743 373.101 426.486 373.101C417.134 373.101 407.395 378.713 407.33 391.612C407.266 403.673 417.328 409.478 426.68 409.478C431.324 409.478 435.516 408.382 438.612 406.189V411.607C434.871 413.542 430.356 414.638 425.519 414.638C414.167 414.638 401.783 406.64 401.848 391.612Z" fill="white"/>
<path d="M383.233 361.62C380.331 363.684 377.3 364.329 374.204 364.329C371.108 364.329 368.076 363.684 365.174 361.62V356.59C368.399 358.718 371.043 359.428 374.204 359.428C377.364 359.428 380.008 358.718 383.233 356.59V361.62ZM393.037 413.864H387.619V381.615V377.745L360.465 413.864H355.435V368.715H360.852V400.9V404.77L388.006 368.715H393.037V413.864Z" fill="white"/>
<path d="M343.593 413.864H338.175V381.615V377.745L311.021 413.864H305.99V368.715H311.408V400.9V404.77L338.562 368.715H343.593V413.864Z" fill="white"/>
<path d="M260.821 391.612C260.885 375.939 272.817 367.941 284.556 367.941C289.071 367.941 293.457 368.973 297.262 370.973V376.391C293.973 374.198 289.716 373.101 285.459 373.101C276.107 373.101 266.367 378.713 266.303 391.612C266.238 403.673 276.3 409.478 285.652 409.478C290.296 409.478 294.489 408.382 297.585 406.189V411.607C293.844 413.542 289.329 414.638 284.492 414.638C273.14 414.638 260.756 406.64 260.821 391.612Z" fill="white"/>
<path d="M219.816 391.612C219.88 375.939 231.812 367.941 243.551 367.941C248.066 367.941 252.452 368.973 256.257 370.973V376.391C252.968 374.198 248.711 373.101 244.454 373.101C235.102 373.101 225.363 378.713 225.298 391.612C225.234 403.673 235.295 409.478 244.648 409.478C249.291 409.478 253.484 408.382 256.58 406.189V411.607C252.839 413.542 248.324 414.638 243.487 414.638C232.135 414.638 219.751 406.64 219.816 391.612Z" fill="white"/>
<path d="M166.781 391.29C166.781 379.616 174.585 367.941 190.387 367.941C206.19 367.941 213.994 379.616 213.994 391.29C213.994 402.964 206.19 414.638 190.387 414.638C174.585 414.638 166.781 402.964 166.781 391.29ZM208.512 391.29C208.512 382.002 202.642 373.101 190.387 373.101C178.133 373.101 172.263 382.002 172.263 391.29C172.263 400.578 178.133 409.478 190.387 409.478C202.642 409.478 208.512 400.578 208.512 391.29Z" fill="white"/>
<path d="M142.144 368.715C152.593 368.715 161.3 372.005 161.3 383.292C161.3 394.579 152.593 397.869 142.144 397.869H132.147V413.864H126.729V368.715H142.144ZM155.818 383.292C155.818 375.617 149.82 373.875 142.402 373.875H132.147V392.709H142.402C149.755 392.709 155.818 390.903 155.818 383.292Z" fill="white"/>
<path d="M117.176 368.715V373.875H92.151V388.516H115.241V393.676H92.151V408.704H117.563V413.864H86.7332V368.715H117.176Z" fill="white"/>
<path d="M41.5635 391.612C41.628 375.939 53.5602 367.941 65.2989 367.941C69.8138 367.941 74.1997 368.973 78.0051 370.973V376.391C74.7157 374.198 70.4588 373.101 66.2019 373.101C56.8496 373.101 47.1104 378.713 47.0459 391.612C46.9814 403.673 57.0431 409.478 66.3954 409.478C71.0393 409.478 75.2317 408.382 78.3276 406.189V411.607C74.5867 413.542 70.0718 414.638 65.2344 414.638C53.8827 414.638 41.499 406.64 41.5635 391.612Z" fill="white"/>
<path d="M18.5111 368.715C27.7344 368.715 33.8617 372.521 33.8617 380.131C33.8617 385.872 30.1853 389.097 26.6379 390.129C30.3788 391.161 35.6677 394.128 35.6677 401.48C35.6677 411.736 25.6059 413.864 19.0271 413.864H0V368.715H18.5111ZM28.3793 380.905C28.3793 375.552 24.4449 373.875 18.0596 373.875H5.41787V387.936H19.543C24.2514 387.936 28.3793 386.065 28.3793 380.905ZM30.1853 400.9C30.1853 393.87 23.7354 393.096 19.414 393.096H5.41787V408.704H17.9306C23.6064 408.704 30.1853 408.317 30.1853 400.9Z" fill="white"/>
<path d="M94.9264 112.756H178.704L145.214 184.561H235.273C246.057 184.662 256.633 181.595 265.689 175.74C274.746 169.885 281.884 161.5 286.219 151.626L304.335 112.756H391.097L371.42 154.645C355.991 189.18 327.797 216.404 292.744 230.614L302.218 316.161H203.483L195.709 244.392H117.311L83.8556 316.161H0.078125L94.9264 112.756Z" fill="white"/>
<path d="M414.975 316.161H316.239L528.355 112.756H635.177L657.318 316.161H558.548L553.863 274.169H458.425L414.975 316.161ZM551.26 250.222L544.909 191.224L483.343 250.222H551.26Z" fill="white"/>
<path d="M1030.36 112.756L999.681 178.696H838.13C806.895 178.696 786.073 193.966 776.529 214.615C766.985 235.264 773.232 250.5 804.64 250.5H966.191L935.512 316.439H770.525C684.665 316.439 660.059 278.264 689.628 214.754C703.51 184.838 717.392 152.771 748.036 133.926C778.68 115.082 823.207 113.103 865.373 113.103L1030.36 112.756Z" fill="white"/>
<path d="M1247.79 112.756H1355.37L1260.63 316.161H1176.88L1226.41 209.965L1067.08 316.161H961.401L1056.25 112.756H1139.99L1089.5 221.035L1247.79 112.756Z" fill="white"/>
<path d="M1596.85 112.756H1680.62L1585.78 316.161H1502L1535.49 244.392H1403.85L1370.4 316.161H1286.62L1381.33 112.756H1465.11L1431.62 184.56H1563.25L1596.85 112.756Z" fill="white"/>
<path d="M1922 112.756H2005.77L1910.89 316.161H1827.15L1860.64 244.392H1729L1695.51 316.161H1611.77L1706.62 112.756H1790.36L1756.91 184.56H1888.51L1922 112.756Z" fill="white"/>
<path d="M2128.35 316.161H2044.57L2108.74 178.556H1998.07L2028.75 112.617H2331.37L2276.51 178.556H2192.52L2128.35 316.161Z" fill="white"/>
<path d="M2938.68 316.161L2906.57 259.939L2822 316.161H2711.33L2864.03 214.476L2806.17 112.756H2916.85L2948.67 168.978L3033.52 112.756H3144.34L2991.18 214.476L3049.35 316.161H2938.68Z" fill="white"/>
<path d="M2709.38 161.656H2377.36L2305.17 252.721H2637.23L2709.38 161.656Z" fill="white"/>
<path d="M2781.5 0H2449.47L2377.36 91.0655H2709.41L2781.5 0Z" fill="white"/>
<path d="M2709.38 91.0655V161.655L2781.5 70.6243V0L2709.38 91.0655Z" fill="#CCCCCC"/>
<path d="M2637.23 252.721V323.345L2709.38 232.28V161.656L2637.23 252.721Z" fill="#CCCCCC"/>
<path d="M2565.08 414.41V485L2637.23 393.969V323.345L2565.08 414.41Z" fill="#CCCCCC"/>
<path d="M2637.23 323.345H2305.17L2233.02 414.41H2565.08L2637.23 323.345Z" fill="white"/>
</svg>
